<?xml version="1.0" encoding="UTF-8"?>
<svg id="Layer_2" data-name="Layer 2" xmlns="http://www.w3.org/2000/svg" viewBox="0 0 52.92 52.92">
  <defs>
    <style>
      .cls-1 {
        stroke-width: 6px;
      }

      .cls-1, .cls-2 {
        fill: none;
        stroke: #000;
        stroke-miterlimit: 10;
      }

      .cls-2 {
        stroke-width: 3px;
      }
    </style>
  </defs>
  <g id="Layer_1-2" data-name="Layer 1">
    <g>
      <path class="cls-2" d="m51.42,26.46c0,3.25-2.49,5.99-3.67,8.82s-1.43,6.62-3.64,8.83-5.9,2.43-8.83,3.64-5.56,3.67-8.82,3.67-5.99-2.49-8.82-3.67-6.62-1.43-8.83-3.64-2.43-5.9-3.64-8.83-3.67-5.56-3.67-8.82,2.49-5.99,3.67-8.82,1.43-6.62,3.64-8.83,5.9-2.43,8.83-3.64,5.56-3.67,8.82-3.67,5.99,2.49,8.82,3.67,6.62,1.43,8.83,3.64,2.43,5.9,3.64,8.83,3.67,5.56,3.67,8.82Z"/>
      <g>
        <g>
          <circle cx="17.65" cy="26.23" r="4.48"/>
          <circle class="cls-2" cx="17.65" cy="26.23" r="4.48"/>
        </g>
        <path class="cls-1" d="m29.81,36.56s-19.98,10.73-14.86-11.78"/>
        <g>
          <circle cx="28.35" cy="33.9" r="4.48"/>
          <circle class="cls-2" cx="28.35" cy="33.9" r="4.48"/>
        </g>
      </g>
    </g>
  </g>
</svg>