<?xml version="1.0" encoding="UTF-8"?>
<svg id="Layer_2" data-name="Layer 2" xmlns="http://www.w3.org/2000/svg" viewBox="0 0 54.84 52.54">
  <defs>
    <style>
      .cls-1 {
        stroke-width: 6px;
      }

      .cls-1, .cls-2 {
        fill: none;
        stroke: #000;
        stroke-miterlimit: 10;
      }

      .cls-2 {
        stroke-width: 3px;
      }
    </style>
  </defs>
  <g id="Layer_1-2" data-name="Layer 1">
    <g>
      <path class="cls-2" d="m53.34,26.27c0,2.59-4.16,4.49-4.91,6.83s1.43,6.4-.04,8.41-5.96,1.15-7.99,2.63-2.54,6.01-4.97,6.79-5.42-2.58-8.01-2.58-5.68,3.34-8.01,2.58-2.95-5.33-4.97-6.79-6.51-.59-7.99-2.63.75-5.99-.03-8.41-4.91-4.24-4.91-6.83,4.16-4.49,4.91-6.83-1.43-6.4.04-8.41,5.96-1.15,7.99-2.63,2.54-6.01,4.97-6.79,5.42,2.58,8.01,2.58,5.68-3.34,8.01-2.58,2.95,5.33,4.97,6.79,6.51.59,7.99,2.63-.75,5.99.03,8.41,4.91,4.24,4.91,6.83Z"/>
      <g>
        <g>
          <circle cx="18.77" cy="25.03" r="4.48"/>
          <circle class="cls-2" cx="18.77" cy="25.03" r="4.48"/>
        </g>
        <path class="cls-1" d="m30.93,35.36s-19.98,10.73-14.86-11.78"/>
        <g>
          <circle cx="29.47" cy="32.7" r="4.48"/>
          <circle class="cls-2" cx="29.47" cy="32.7" r="4.48"/>
        </g>
      </g>
    </g>
  </g>
</svg>