<?xml version="1.0" encoding="UTF-8"?>
<svg id="Layer_2" data-name="Layer 2" xmlns="http://www.w3.org/2000/svg" viewBox="0 0 52.92 52.92">
  <defs>
    <style>
      .cls-1 {
        fill: none;
        stroke: #000;
        stroke-miterlimit: 10;
        stroke-width: 3px;
      }
    </style>
  </defs>
  <g id="Layer_1-2" data-name="Layer 1">
    <g>
      <path class="cls-1" d="m51.42,26.46c0,3.25-2.49,5.99-3.67,8.82s-1.43,6.62-3.64,8.83-5.9,2.43-8.83,3.64-5.56,3.67-8.82,3.67-5.99-2.49-8.82-3.67-6.62-1.43-8.83-3.64-2.43-5.9-3.64-8.83-3.67-5.56-3.67-8.82,2.49-5.99,3.67-8.82,1.43-6.62,3.64-8.83c2.21-2.21,5.9-2.43,8.83-3.64s5.56-3.67,8.82-3.67,5.99,2.49,8.82,3.67,6.62,1.43,8.83,3.64,2.43,5.9,3.64,8.83,3.67,5.56,3.67,8.82Z"/>
      <g>
        <path d="m36.16,27.05c2.49,3.75.33,9.43-4.81,12.67s-13.04,2.12-17.64-2.52-2.44-10.31,4.81-12.67c7.12-2.32,14.87-1.27,17.49,2.32.05.07.1.13.14.2Z"/>
        <path class="cls-1" d="m36.16,27.05c2.49,3.75.33,9.43-4.81,12.67s-13.04,2.12-17.64-2.52-2.44-10.31,4.81-12.67c7.12-2.32,14.87-1.27,17.49,2.32.05.07.1.13.14.2Z"/>
      </g>
    </g>
  </g>
</svg>