<?xml version="1.0" encoding="UTF-8"?>
<svg id="Layer_2" data-name="Layer 2" xmlns="http://www.w3.org/2000/svg" viewBox="0 0 52.92 52.92">
  <defs>
    <style>
      .cls-1 {
        fill: none;
        stroke: #000;
        stroke-miterlimit: 10;
        stroke-width: 3px;
      }
    </style>
  </defs>
  <g id="Layer_1-2" data-name="Layer 1">
    <g>
      <path class="cls-1" d="m51.42,26.46c0,3.25-2.49,5.99-3.67,8.82s-1.43,6.62-3.64,8.83-5.9,2.43-8.83,3.64-5.56,3.67-8.82,3.67-5.99-2.49-8.82-3.67-6.62-1.43-8.83-3.64-2.43-5.9-3.64-8.83-3.67-5.56-3.67-8.82,2.49-5.99,3.67-8.82,1.43-6.62,3.64-8.83,5.9-2.43,8.83-3.64,5.56-3.67,8.82-3.67,5.99,2.49,8.82,3.67,6.62,1.43,8.83,3.64,2.43,5.9,3.64,8.83,3.67,5.56,3.67,8.82Z"/>
      <g>
        <path d="m24.37,17.77c-1.85,4.87-2.09,13.2-.53,18.61s-2.01,4.91-7.95-1.12c-5.94-6.03-5.71-14.36.53-18.61s9.72-3.76,8.05.86c-.03.09-.07.17-.1.26Z"/>
        <path class="cls-1" d="m24.37,17.77c-1.85,4.87-2.09,13.2-.53,18.61s-2.01,4.91-7.95-1.12c-5.94-6.03-5.71-14.36.53-18.61s9.72-3.76,8.05.86c-.03.09-.07.17-.1.26Z"/>
      </g>
    </g>
  </g>
</svg>