<?xml version="1.0" encoding="UTF-8"?>
<svg id="Layer_2" data-name="Layer 2" xmlns="http://www.w3.org/2000/svg" viewBox="0 0 54.84 52.54">
  <defs>
    <style>
      .cls-1 {
        fill: none;
        stroke: #000;
        stroke-miterlimit: 10;
        stroke-width: 3px;
      }
    </style>
  </defs>
  <g id="Layer_1-2" data-name="Layer 1">
    <g>
      <path class="cls-1" d="m53.34,26.27c0,2.59-4.16,4.49-4.91,6.83s1.43,6.4-.04,8.41-5.96,1.15-7.99,2.63-2.54,6.01-4.97,6.79-5.42-2.58-8.01-2.58-5.68,3.34-8.01,2.58-2.95-5.33-4.97-6.79-6.51-.59-7.99-2.63.75-5.99-.03-8.41-4.91-4.24-4.91-6.83,4.16-4.49,4.91-6.83-1.43-6.4.04-8.41,5.96-1.15,7.99-2.63,2.54-6.01,4.97-6.79,5.42,2.58,8.01,2.58,5.68-3.34,8.01-2.58,2.95,5.33,4.97,6.79,6.51.59,7.99,2.63-.75,5.99.03,8.41,4.91,4.24,4.91,6.83Z"/>
      <g>
        <path d="m25.33,17.58c-1.85,4.87-2.09,13.2-.53,18.61s-2.01,4.91-7.95-1.12c-5.94-6.03-5.71-14.36.53-18.61s9.72-3.76,8.05.86c-.03.09-.07.17-.1.26Z"/>
        <path class="cls-1" d="m25.33,17.58c-1.85,4.87-2.09,13.2-.53,18.61s-2.01,4.91-7.95-1.12c-5.94-6.03-5.71-14.36.53-18.61s9.72-3.76,8.05.86c-.03.09-.07.17-.1.26Z"/>
      </g>
    </g>
  </g>
</svg>